<svg xmlns="http://www.w3.org/2000/svg" width="24" height="24" viewBox="0 0 24 24">
    <g fill="none" fill-rule="evenodd">
        <g>
            <g>
                <g>
                    <g>
                        <g>
                            <path d="M0 0H24V23.92H0z" transform="translate(-1575 -240) translate(1560 40) translate(0 113) translate(15 87)"/>
                            <path fill="#150B2C" d="M8.91 11.91c.195-.23.548-.266.789-.08.22.17.272.47.116.712l-.032.043-1.332 1.368h9.74c.279 0 .51.195.553.45l.008.088c0 .273-.215.501-.524.534l-9.737.002 1.297 1.585c.155.19.157.451.008.648l-.062.07-.042.035c-.223.167-.54.148-.75-.052l-.037-.04-2.036-2.279c-.143-.176-.158-.417-.03-.62l.035-.048zm13.592 2.043c.275 0 .498.223.498.499 0 .275-.223.498-.498.498h-2.004c-.275 0-.498-.223-.498-.498 0-.276.223-.499.498-.499h2.004zM15.81 6.056c.223-.167.54-.148.75.052l.037.04 2.036 2.28c.143.175.158.417.03.62l-.035.047-2.036 2.416c-.195.23-.548.267-.789.08-.22-.17-.272-.47-.116-.711l.032-.043 1.332-1.369h-9.74c-.279 0-.51-.195-.553-.45l-.007-.087c0-.273.214-.502.523-.535l9.737-.002-1.297-1.584c-.155-.19-.157-.452-.008-.648l.063-.071zM5.005 8.472c.275 0 .498.223.498.498s-.223.498-.498.498H3c-.275 0-.498-.223-.498-.498s.223-.498.498-.498h2.004z" transform="translate(-1575 -240) translate(1560 40) translate(0 113) translate(15 87)"/>
                        </g>
                    </g>
                </g>
            </g>
        </g>
    </g>
</svg>
