<svg xmlns="http://www.w3.org/2000/svg" viewBox="0 0 30 31"><defs/><g fill="none" fill-rule="evenodd"><path d="M2.269 2.74c.314-.892 1.09-1.529 2.02-1.707C17.51-1.498 24.213.837 27.757 5.692c1.09 1.492 1.78 3.072 2.025 5.093.72 5.963-2.073 13.591-7.215 17.277-3.124 2.239-7.252 2.787-12.441.627C.352 24.693-2.52 16.36 2.269 2.741" fill="#489F9D"/><path d="M16.453 11.73a2.284 2.284 0 00-1.751.84c-.73.867-.955 2.244-.55 3.35.254.694.857 1.571 2.29 1.816 1.823.31 3.323-.421 4.335-1.598-.6-2.176-2.084-4.058-3.73-4.358a3 3 0 00-.594-.05M7.65 12.953c-.483 2.74-.006 5.109 1.378 6.852 1.409 1.775 3.714 2.798 6.666 2.959.238.013.466.017.683.013 3.63-.068 4.47-2.415 4.64-3.865.033-.278.046-.561.042-.845-1.39 1.102-3.118 1.542-4.885 1.24-1.706-.29-2.956-1.298-3.52-2.838-.602-1.643-.27-3.623.828-4.926.956-1.136 2.324-1.61 3.85-1.332 2.007.365 3.592 2.07 4.493 4.138.123-.328.217-.666.28-1.006.7-3.754-2.116-5.708-4.74-6.241-2.156-.438-4.715.121-6.68 1.459C9.03 9.69 7.952 11.249 7.65 12.953m8.73 11.418c-.252.005-.509 0-.772-.014-3.421-.186-6.129-1.417-7.83-3.56-1.652-2.08-2.255-4.965-1.698-8.12.375-2.132 1.692-4.062 3.708-5.434 2.342-1.596 5.293-2.232 7.894-1.704 4.993 1.014 6.607 4.797 5.99 8.097a7.671 7.671 0 01-1.181 2.875c.165.878.207 1.761.11 2.588-.385 3.275-2.69 5.206-6.221 5.272" fill="#FFF"/><path d="M-1-1h32v32H-1z"/></g></svg>